<svg width="21" height="18" viewBox="0 0 21 18" fill="none" xmlns="http://www.w3.org/2000/svg">
<path d="M10.0398 18C15.5322 18 20.0796 13.9147 20.0796 9C20.0796 4.07647 15.5223 0 10.03 0C4.54744 0 0 4.07647 0 9C0 13.9147 4.55728 18 10.0398 18ZM6.56524 12.8471C6.12231 12.8471 5.75812 12.5118 5.75812 12.1059C5.75812 11.9118 5.8467 11.7353 5.99435 11.5941L8.87833 9.00882L5.99435 6.42353C5.8467 6.28235 5.75812 6.10588 5.75812 5.91176C5.75812 5.50588 6.12231 5.18824 6.56524 5.18824C6.80147 5.18824 6.98848 5.25882 7.13613 5.4L10.03 7.98529L12.9533 5.39118C13.1206 5.24118 13.2978 5.17059 13.5144 5.17059C13.9573 5.17059 14.3215 5.49706 14.3215 5.89412C14.3215 6.09706 14.2526 6.25588 14.0852 6.41471L11.1914 9.00882L14.0754 11.5853C14.2329 11.7353 14.3116 11.9029 14.3116 12.1059C14.3116 12.5118 13.9474 12.8471 13.4947 12.8471C13.2683 12.8471 13.0714 12.7588 12.9139 12.6265L10.03 10.0412L7.16566 12.6265C7.00817 12.7676 6.80147 12.8471 6.56524 12.8471Z" fill="#3C3C43" fill-opacity="0.6"/>
</svg>
