<svg width="34" height="30" viewBox="0 0 34 30" fill="none" xmlns="http://www.w3.org/2000/svg">
<path d="M32.4091 21.2681H10.012L11.1365 19.0033L29.8215 18.9699C30.4534 18.9699 30.995 18.5236 31.1078 17.9063L33.6954 3.58497C33.7631 3.20937 33.6616 2.82261 33.4133 2.52882C33.2906 2.38423 33.1376 2.26776 32.9649 2.18749C32.7921 2.10722 32.6038 2.06507 32.4129 2.06396L8.64293 1.98587L8.43983 1.04128C8.31196 0.438824 7.76284 0 7.13851 0H1.32766C0.97554 0 0.637846 0.138308 0.388862 0.384497C0.139878 0.630686 0 0.964591 0 1.31275C0 1.66092 0.139878 1.99482 0.388862 2.24101C0.637846 2.4872 0.97554 2.62551 1.32766 2.62551H6.06284L6.95045 6.79806L9.13563 17.2592L6.32235 21.7999C6.17626 21.9949 6.08826 22.2264 6.06832 22.4682C6.04838 22.7101 6.09729 22.9527 6.20952 23.1684C6.43519 23.611 6.89027 23.8899 7.39426 23.8899H9.75621C9.25267 24.5512 8.98069 25.3567 8.98143 26.1844C8.98143 28.2893 10.7115 30 12.8403 30C14.969 30 16.6991 28.2893 16.6991 26.1844C16.6991 25.3551 16.4208 24.5481 15.9244 23.8899H21.9834C21.4799 24.5512 21.2079 25.3567 21.2087 26.1844C21.2087 28.2893 22.9387 30 25.0675 30C27.1963 30 28.9264 28.2893 28.9264 26.1844C28.9264 25.3551 28.648 24.5481 28.1516 23.8899H32.4129C33.1425 23.8899 33.7405 23.3023 33.7405 22.5771C33.7383 22.2293 33.5971 21.8965 33.3477 21.6513C33.0983 21.406 32.7609 21.2683 32.4091 21.2681ZM9.19581 4.57419L30.852 4.64485L28.7308 16.389L11.7195 16.4187L9.19581 4.57419ZM12.8403 27.3596C12.1859 27.3596 11.6518 26.8315 11.6518 26.1844C11.6518 25.5374 12.1859 25.0093 12.8403 25.0093C13.4947 25.0093 14.0288 25.5374 14.0288 26.1844C14.0288 26.4961 13.9036 26.795 13.6807 27.0154C13.4578 27.2358 13.1555 27.3596 12.8403 27.3596ZM25.0675 27.3596C24.4131 27.3596 23.879 26.8315 23.879 26.1844C23.879 25.5374 24.4131 25.0093 25.0675 25.0093C25.7219 25.0093 26.256 25.5374 26.256 26.1844C26.256 26.4961 26.1308 26.795 25.9079 27.0154C25.685 27.2358 25.3827 27.3596 25.0675 27.3596Z" fill="black"/>
</svg>
