<svg width="32" height="32" viewBox="0 0 32 32" fill="none" xmlns="http://www.w3.org/2000/svg">
<path fill-rule="evenodd" clip-rule="evenodd" d="M20.7729 9.14861C21.1634 8.75808 21.7966 8.75808 22.1871 9.14861L23.6013 10.5628C23.9918 10.9533 23.9918 11.5865 23.6013 11.977L22.1871 13.3913L19.3587 10.5629L18.6516 11.27L21.4799 14.0984L13.2088 22.3695L9.67325 23.0766L10.3804 19.5411L20.7729 9.14861ZM9.46079 24.1389L13.7018 23.2907L24.3084 12.6841C25.0894 11.9031 25.0894 10.6368 24.3084 9.85571L22.8942 8.4415C22.1131 7.66045 20.8468 7.66045 20.0658 8.4415L9.45916 19.0481L8.61096 23.2891L8.3985 24.3514L9.46079 24.1389Z" fill="#6D6D6D"/>
</svg>
